<?xml version="1.0" standalone="no"?>
<!DOCTYPE svg PUBLIC "-//W3C//DTD SVG 20010904//EN"
 "http://www.w3.org/TR/2001/REC-SVG-20010904/DTD/svg10.dtd">
<svg version="1.0" xmlns="http://www.w3.org/2000/svg"
 width="826.000000pt" height="620.000000pt" viewBox="0 0 826.000000 620.000000"
 preserveAspectRatio="xMidYMid meet">

<g transform="translate(0.000000,620.000000) scale(0.100000,-0.100000)"
fill="#000000" stroke="none">
<path d="M0 3100 l0 -3100 4130 0 4130 0 0 3100 0 3100 -4130 0 -4130 0 0
-3100z m4737 1192 c314 -82 543 -309 624 -617 26 -102 29 -278 5 -380 -39
-167 -106 -287 -230 -411 -128 -128 -232 -186 -411 -229 -58 -13 -91 -26 -93
-36 -1 -7 117 -168 263 -356 146 -188 265 -349 265 -357 0 -7 -7 -17 -16 -20
-20 -8 -373 -8 -399 0 -11 3 -148 172 -305 375 l-285 369 -380 -2 -380 -3 -3
-364 c-2 -277 -5 -367 -15 -373 -6 -4 -80 -8 -164 -8 -125 0 -154 3 -167 16
-14 14 -16 76 -16 539 0 288 3 530 6 539 5 14 49 16 393 16 298 0 391 3 405
13 22 16 61 -38 -497 682 -248 319 -455 586 -461 594 -8 10 -5 17 9 28 17 12
143 14 895 10 858 -3 877 -4 957 -25z"/>
<path d="M3620 3952 c-6 -2 -10 -10 -10 -18 0 -14 660 -874 707 -921 20 -21
31 -23 130 -23 147 0 225 14 309 55 137 67 238 203 264 354 38 226 -103 455
-327 530 -56 19 -89 20 -562 23 -275 2 -506 2 -511 0z"/>
</g>
</svg>
